# xmcd CD database file
#
# Track frame offsets:
#	150
#	10009
#	23651
#	41416
#	55148
#	65186
#	76694
#	88858
#	102991
#	109899
#
# Disc length: 1615 seconds
#
# Revision: 0
# Processed by: cddbd v1.4PL0 Copyright (c) Steve Scherf et al.
# Submitted via: CDex 1.50Beta7
#
DISCID=75064d0a
DTITLE=Marina and Moreno Quartet - Jazz Tzigane
DYEAR=2004
DGENRE=Jazz
TTITLE0=Adagio d'Albinoni
TTITLE1=Maré Djingé
TTITLE2=Les Fenêtres de Moscou
TTITLE3=Jülik
TTITLE4=Dolorès
TTITLE5=Gari Gari
TTITLE6=Les Yeux Noirs
TTITLE7=Minor Swing
TTITLE8=Tiger Rag
TTITLE9=Undecided
EXTD=YEAR: 2004
EXTT0=
EXTT1=
EXTT2=
EXTT3=
EXTT4=
EXTT5=
EXTT6=
EXTT7=
EXTT8=
EXTT9=
PLAYORDER=
